<svg width="252" height="38" fill="none" xmlns="http://www.w3.org/2000/svg"><path d="M12.034 3.096c4.94 0 8.639 1.127 11.096 3.382 2.457 2.23 3.686 5.485 3.686 9.766 0 2.761-.608 5.18-1.824 7.258-1.19 2.052-2.926 3.648-5.206 4.788-2.255 1.14-4.953 1.71-8.094 1.71l-2.356-.038a104.33 104.33 0 00-3.192-.076c-2.61 0-4.56.038-5.852.114v-.76c.836-.05 1.444-.152 1.824-.304.405-.152.671-.443.798-.874.152-.43.228-1.127.228-2.09V7.124c0-.963-.076-1.66-.228-2.09-.127-.43-.393-.722-.798-.874-.38-.152-.988-.253-1.824-.304v-.76c1.064.076 2.597.114 4.598.114h1.178l1.52-.038c2.077-.05 3.56-.076 4.446-.076zm-.038.684c-.785 0-1.38.089-1.786.266-.38.177-.646.494-.798.95-.152.456-.228 1.14-.228 2.052v19c0 .912.076 1.596.228 2.052.152.456.418.773.798.95.405.177 1.013.266 1.824.266 3.065 0 5.244-1.064 6.536-3.192 1.292-2.153 1.938-5.396 1.938-9.728s-.671-7.511-2.014-9.538c-1.317-2.052-3.483-3.078-6.498-3.078zM34.354.55c1.064 0 1.9.266 2.508.798.633.507.95 1.216.95 2.128 0 .912-.317 1.634-.95 2.166-.608.507-1.444.76-2.508.76s-1.913-.253-2.546-.76c-.608-.532-.912-1.254-.912-2.166 0-.912.304-1.621.912-2.128C32.441.816 33.29.55 34.354.55zm2.964 25.916c0 1.039.177 1.76.532 2.166.38.38 1.013.57 1.9.57V30c-2.533-.101-4.218-.152-5.054-.152-.785 0-2.546.05-5.282.152v-.798c.912 0 1.545-.19 1.9-.57.355-.405.532-1.127.532-2.166v-11.97c0-1.165-.177-2.014-.532-2.546-.355-.532-.988-.798-1.9-.798v-.798c.81.076 1.596.114 2.356.114 2.255 0 4.104-.177 5.548-.532v16.53zm22.094-12.464a1.83 1.83 0 01-1.292-.494c-.354-.355-.532-.849-.532-1.482 0-.608.152-1.229.456-1.862-.608.253-1.114.545-1.52.874-.38.304-.71.697-.988 1.178.786.937 1.178 2.153 1.178 3.648 0 2.001-.696 3.509-2.09 4.522-1.368 1.013-3.192 1.52-5.472 1.52h-.684c-1.038.608-1.558 1.28-1.558 2.014 0 .81.507 1.216 1.52 1.216h4.142c2.23 0 4.003.418 5.32 1.254 1.343.81 2.014 2.065 2.014 3.762 0 1.292-.418 2.457-1.254 3.496-.81 1.064-2.052 1.913-3.724 2.546-1.672.633-3.724.95-6.156.95-2.457 0-4.433-.317-5.928-.95-1.47-.608-2.204-1.495-2.204-2.66 0-.785.355-1.495 1.064-2.128.71-.608 1.76-1.09 3.154-1.444l.342.608c-.912.76-1.368 1.634-1.368 2.622 0 1.064.482 1.875 1.444 2.432.963.583 2.293.874 3.99.874 1.774 0 3.205-.355 4.294-1.064 1.115-.71 1.672-1.71 1.672-3.002 0-.836-.316-1.495-.95-1.976-.608-.481-1.684-.722-3.23-.722h-2.356c-1.621 0-2.888-.266-3.8-.798-.912-.557-1.368-1.393-1.368-2.508 0-.937.33-1.773.988-2.508.659-.735 1.66-1.444 3.002-2.128-1.824-.228-3.268-.836-4.332-1.824-1.064-.988-1.596-2.356-1.596-4.104 0-2.001.684-3.509 2.052-4.522 1.394-1.013 3.23-1.52 5.51-1.52 2.534 0 4.472.595 5.814 1.786a5.499 5.499 0 011.786-1.634c.71-.405 1.432-.608 2.166-.608.76 0 1.356.228 1.786.684.456.43.684 1 .684 1.71s-.202 1.267-.608 1.672c-.38.38-.836.57-1.368.57zm-10.26 7.22c.71 0 1.242-.405 1.596-1.216.38-.81.57-2.191.57-4.142 0-1.95-.19-3.331-.57-4.142-.354-.81-.886-1.216-1.596-1.216-.71 0-1.254.405-1.634 1.216-.354.81-.532 2.191-.532 4.142 0 1.95.178 3.331.532 4.142.38.81.925 1.216 1.634 1.216zM67.344.55c1.064 0 1.9.266 2.508.798.633.507.95 1.216.95 2.128 0 .912-.317 1.634-.95 2.166-.608.507-1.444.76-2.508.76s-1.912-.253-2.546-.76c-.608-.532-.912-1.254-.912-2.166 0-.912.304-1.621.912-2.128C65.431.816 66.28.55 67.344.55zm2.964 25.916c0 1.039.177 1.76.532 2.166.38.38 1.013.57 1.9.57V30c-2.533-.101-4.218-.152-5.054-.152-.785 0-2.546.05-5.282.152v-.798c.912 0 1.545-.19 1.9-.57.355-.405.532-1.127.532-2.166v-11.97c0-1.165-.177-2.014-.532-2.546-.355-.532-.988-.798-1.9-.798v-.798c.81.076 1.596.114 2.356.114 2.255 0 4.104-.177 5.548-.532v16.53zm11.796-16.112h4.484v.76h-4.483v15.352c0 .76.126 1.305.38 1.634.278.304.709.456 1.291.456 1.09 0 1.951-.76 2.585-2.28l.645.342c-.962 2.61-2.698 3.914-5.206 3.914-1.671 0-2.938-.43-3.8-1.292-.531-.532-.899-1.19-1.102-1.976-.177-.81-.266-1.913-.266-3.306V11.114H73.44v-.76h3.192V5.338c2.103 0 3.927-.405 5.472-1.216v6.232zm10.662 19.912c-1.621 0-2.837-.418-3.648-1.254-.785-.836-1.178-1.938-1.178-3.306 0-1.14.291-2.077.874-2.812a6.238 6.238 0 012.166-1.748c.861-.405 1.95-.836 3.268-1.292 1.393-.481 2.407-.912 3.04-1.292.659-.405.988-.95.988-1.634v-2.964c0-1.064-.253-1.887-.76-2.47-.481-.608-1.241-.912-2.28-.912-1.216 0-2.14.304-2.774.912.71.253 1.254.633 1.634 1.14.405.507.608 1.102.608 1.786 0 .861-.291 1.545-.874 2.052-.583.507-1.292.76-2.128.76-.887 0-1.57-.279-2.052-.836-.481-.557-.722-1.254-.722-2.09 0-.71.165-1.305.494-1.786.355-.507.887-.975 1.596-1.406.684-.405 1.52-.722 2.508-.95a15.055 15.055 0 013.306-.342c1.241 0 2.318.127 3.23.38.912.253 1.672.684 2.28 1.292a4.062 4.062 0 011.102 2.052c.203.81.304 1.913.304 3.306v10.336c0 .608.051 1.039.152 1.292.127.253.355.38.684.38.38 0 .836-.215 1.368-.646l.38.646c-1.14.937-2.533 1.406-4.18 1.406-1.393 0-2.369-.279-2.926-.836-.557-.557-.849-1.305-.874-2.242-1.267 2.052-3.129 3.078-5.586 3.078zm2.926-2.432c.988 0 1.85-.52 2.584-1.558v-7.79c-.304.507-.95 1.064-1.938 1.672-.988.633-1.735 1.267-2.242 1.9-.507.633-.76 1.545-.76 2.736 0 1.039.215 1.811.646 2.318.43.481 1 .722 1.71.722zm19.478-1.368c0 1.039.177 1.76.532 2.166.355.38.988.57 1.9.57V30c-2.635-.101-4.332-.152-5.092-.152-.861 0-2.609.05-5.244.152v-.798c.887 0 1.507-.19 1.862-.57.38-.405.57-1.127.57-2.166V4.806c0-1.165-.19-2.014-.57-2.546-.355-.532-.975-.798-1.862-.798V.664c.811.076 1.596.114 2.356.114 2.204 0 4.053-.177 5.548-.532v26.22zm38.34-22.61c-.836.127-1.457.342-1.862.646-.38.304-.646.785-.798 1.444-.127.659-.19 1.634-.19 2.926v21.204l-.912-.038-1.026.038-16.492-20.9v14.592c0 1.495.076 2.597.228 3.306.152.684.481 1.19.988 1.52.506.304 1.33.52 2.47.646V30c-.988-.076-2.356-.114-4.104-.114-1.394 0-2.496.038-3.306.114v-.76c.836-.127 1.444-.342 1.824-.646.405-.304.671-.785.798-1.444.152-.659.228-1.634.228-2.926v-17.1c0-.963-.076-1.66-.228-2.09-.127-.43-.393-.722-.798-.874-.38-.152-.988-.253-1.824-.304v-.76c.81.076 1.912.114 3.306.114 1.266 0 2.356-.038 3.268-.114l14.706 18.126V9.328c0-1.495-.076-2.584-.228-3.268-.152-.71-.482-1.216-.988-1.52-.507-.33-1.33-.557-2.47-.684v-.76c.988.076 2.356.114 4.104.114 1.418 0 2.52-.038 3.306-.114v.76zm11.063 5.966c2.914 0 5.194.836 6.84 2.508 1.647 1.647 2.47 4.269 2.47 7.866 0 3.597-.823 6.22-2.47 7.866-1.646 1.647-3.926 2.47-6.84 2.47-2.888 0-5.168-.823-6.84-2.47-1.646-1.647-2.47-4.269-2.47-7.866 0-3.597.824-6.22 2.47-7.866 1.672-1.672 3.952-2.508 6.84-2.508zm0 .76c-1.089 0-1.963.798-2.622 2.394-.633 1.57-.95 3.977-.95 7.22s.317 5.65.95 7.22c.659 1.57 1.533 2.356 2.622 2.356 1.115 0 1.989-.773 2.622-2.318.634-1.57.95-3.99.95-7.258s-.329-5.687-.988-7.258c-.633-1.57-1.494-2.356-2.584-2.356zm42.235 15.884c0 1.039.177 1.76.532 2.166.38.38 1.013.57 1.9.57V30c-2.534-.101-4.206-.152-5.016-.152-.71 0-2.28.05-4.712.152v-.798c.684 0 1.152-.19 1.406-.57.278-.38.418-1.102.418-2.166V14.648c0-1.064-.165-1.85-.494-2.356-.304-.532-.9-.798-1.786-.798-.938 0-1.761.393-2.47 1.178-.684.785-1.09 1.748-1.216 2.888v10.906c0 1.039.152 1.76.456 2.166.329.38.912.57 1.748.57V30c-2.432-.101-4.028-.152-4.788-.152-.71 0-2.28.05-4.712.152v-.798c.684 0 1.152-.19 1.406-.57.278-.405.418-1.127.418-2.166V14.648c0-1.064-.14-1.85-.418-2.356-.279-.532-.824-.798-1.634-.798-1.014 0-1.888.43-2.622 1.292-.71.836-1.064 1.875-1.064 3.116v10.564c0 1.039.126 1.76.38 2.166.278.38.76.57 1.444.57V30c-2.23-.101-3.724-.152-4.484-.152-.76 0-2.508.05-5.244.152v-.798c.912 0 1.545-.19 1.9-.57.354-.405.532-1.127.532-2.166v-11.97c0-1.165-.178-2.014-.532-2.546-.355-.532-.988-.798-1.9-.798v-.798c.81.076 1.596.114 2.356.114 2.254 0 4.104-.177 5.548-.532v3.42c1.114-2.356 3.078-3.534 5.89-3.534 1.925 0 3.318.494 4.18 1.482.481.507.798 1.267.95 2.28.658-1.368 1.52-2.33 2.584-2.888 1.064-.583 2.305-.874 3.724-.874 1.925 0 3.318.494 4.18 1.482.405.456.696 1.077.874 1.862.177.785.266 1.811.266 3.078v10.222zm8.864 3.8c-1.621 0-2.837-.418-3.648-1.254-.785-.836-1.178-1.938-1.178-3.306 0-1.14.291-2.077.874-2.812a6.238 6.238 0 012.166-1.748c.861-.405 1.951-.836 3.268-1.292 1.393-.481 2.407-.912 3.04-1.292.659-.405.988-.95.988-1.634v-2.964c0-1.064-.253-1.887-.76-2.47-.481-.608-1.241-.912-2.28-.912-1.216 0-2.141.304-2.774.912.709.253 1.254.633 1.634 1.14.405.507.608 1.102.608 1.786 0 .861-.291 1.545-.874 2.052-.583.507-1.292.76-2.128.76-.887 0-1.571-.279-2.052-.836-.481-.557-.722-1.254-.722-2.09 0-.71.165-1.305.494-1.786.355-.507.887-.975 1.596-1.406.684-.405 1.52-.722 2.508-.95a15.05 15.05 0 013.306-.342c1.241 0 2.318.127 3.23.38.912.253 1.672.684 2.28 1.292a4.062 4.062 0 011.102 2.052c.203.81.304 1.913.304 3.306v10.336c0 .608.051 1.039.152 1.292.127.253.355.38.684.38.38 0 .836-.215 1.368-.646l.38.646c-1.14.937-2.533 1.406-4.18 1.406-1.393 0-2.369-.279-2.926-.836-.557-.557-.849-1.305-.874-2.242-1.267 2.052-3.129 3.078-5.586 3.078zm2.926-2.432c.988 0 1.849-.52 2.584-1.558v-7.79c-.304.507-.95 1.064-1.938 1.672-.988.633-1.735 1.267-2.242 1.9-.507.633-.76 1.545-.76 2.736 0 1.039.215 1.811.646 2.318.431.481 1.001.722 1.71.722zm30.422-2.014c0 1.165.177 2.014.532 2.546.355.532.988.798 1.9.798v.798a24.445 24.445 0 00-2.356-.114c-2.255 0-4.104.177-5.548.532v-3.268c-.861 2.28-2.508 3.42-4.94 3.42-2.381 0-4.281-.861-5.7-2.584-1.393-1.748-2.077-4.37-2.052-7.866 0-2.23.355-4.104 1.064-5.624.735-1.545 1.735-2.698 3.002-3.458 1.292-.785 2.761-1.178 4.408-1.178 1.849 0 3.255.481 4.218 1.444v-6.46c0-1.165-.19-2.014-.57-2.546-.355-.532-.975-.798-1.862-.798V.664c.811.076 1.596.114 2.356.114 2.204 0 4.053-.177 5.548-.532V25.82zm-8.854 3.078c.836 0 1.571-.304 2.204-.912.659-.608 1.051-1.431 1.178-2.47v-13.3c-.633-.861-1.558-1.292-2.774-1.292-1.343 0-2.381.773-3.116 2.318-.735 1.545-1.089 3.85-1.064 6.916-.025 3.09.266 5.32.874 6.688.633 1.368 1.533 2.052 2.698 2.052z" fill="#000"/></svg>