<svg width="28" height="28" fill="none" xmlns="http://www.w3.org/2000/svg"><g clip-path="url(#clip0)"><path d="M9.087 21.733c0 .11-.126.197-.285.197-.18.016-.306-.071-.306-.197 0-.11.126-.197.284-.197.165-.017.307.071.307.197zm-1.703-.246c-.039.11.07.235.235.268.143.054.307 0 .34-.11.033-.11-.071-.235-.236-.284-.142-.038-.301.016-.34.126zm2.42-.093c-.158.038-.268.142-.251.268.016.11.159.18.323.142.159-.038.268-.142.252-.252-.017-.104-.164-.175-.323-.158zM13.41.438C5.812.438 0 6.196 0 13.78c0 6.065 3.823 11.255 9.284 13.082.701.125.948-.307.948-.662 0-.34-.016-2.21-.016-3.358 0 0-3.835.82-4.64-1.63 0 0-.624-1.591-1.523-2.001 0 0-1.254-.859.088-.843 0 0 1.364.11 2.114 1.412 1.2 2.11 3.21 1.503 3.993 1.142.126-.875.482-1.482.877-1.842-3.062-.34-6.151-.783-6.151-6.043 0-1.504.416-2.26 1.292-3.222-.142-.355-.608-1.82.143-3.713 1.144-.355 3.78 1.477 3.78 1.477a12.889 12.889 0 013.439-.465c1.167 0 2.344.158 3.44.465 0 0 2.634-1.838 3.78-1.477.75 1.898.284 3.358.142 3.713.876.968 1.413 1.723 1.413 3.221 0 5.278-3.226 5.699-6.288 6.043.504.433.93 1.253.93 2.538 0 1.843-.016 4.123-.016 4.572 0 .355.253.787.948.662 5.478-1.816 9.191-7.006 9.191-13.07 0-7.586-6.162-13.345-13.76-13.345zM5.324 19.299c-.071.055-.055.18.038.285.088.087.214.125.285.054.071-.054.055-.18-.038-.284-.088-.088-.214-.126-.285-.055zm-.591-.443c-.039.071.016.159.126.213.087.055.197.039.235-.038.038-.07-.016-.158-.126-.213-.11-.033-.197-.016-.235.038zm1.774 1.947c-.087.071-.055.235.071.34.126.125.285.141.356.054.072-.071.039-.235-.07-.34-.121-.125-.286-.141-.357-.054zM5.883 20c-.088.055-.088.197 0 .323.087.126.235.18.307.126.087-.071.087-.214 0-.34-.077-.125-.22-.18-.307-.109z" fill="#fff"/></g><defs><clipPath id="clip0"><path fill="#fff" d="M0 0h27.168v28H0z"/></clipPath></defs></svg>