<svg width="68" height="68" fill="none" xmlns="http://www.w3.org/2000/svg"><g clip-path="url(#clip0)"><path d="M4.282 2.251l4.413 56.46c.066.849.64 1.572 1.45 1.829l23.224 7.362c.41.13.852.13 1.262 0l23.223-7.362a2.088 2.088 0 001.451-1.828l4.413-56.46A2.088 2.088 0 0061.636 0H6.364a2.088 2.088 0 00-2.082 2.251zM52.4 19.77H23.638l.868 8.005h27.27l-1.785 22.82-15.99 5.07-15.992-5.07-.932-11.923h8.393v5.848l8.754 2.35 8.702-2.35.675-9.32H16.805l-1.778-22.76h37.947l-.573 7.33z" fill="#FC490B"/></g><defs><clipPath id="clip0"><path fill="#fff" d="M0 0h68v68H0z"/></clipPath></defs></svg>