<svg width="25" height="30" fill="none" xmlns="http://www.w3.org/2000/svg"><g clip-path="url(#clip0)"><path d="M12.204 8.071c-3.464 0-6.257 2.937-6.257 6.578 0 3.64 2.793 6.577 6.257 6.577 3.463 0 6.256-2.937 6.256-6.577 0-3.641-2.793-6.578-6.256-6.578zm0 10.854c-2.238 0-4.068-1.918-4.068-4.276 0-2.359 1.824-4.276 4.068-4.276 2.243 0 4.067 1.917 4.067 4.276 0 2.358-1.83 4.276-4.067 4.276zm7.972-11.123c0 .853-.654 1.534-1.46 1.534-.81 0-1.459-.686-1.459-1.534 0-.847.653-1.534 1.46-1.534.805 0 1.459.687 1.459 1.534zM24.32 9.36c-.093-2.055-.54-3.875-1.971-5.375-1.427-1.5-3.159-1.969-5.114-2.072-2.015-.12-8.054-.12-10.069 0-1.949.097-3.68.567-5.113 2.066C.621 5.478.18 7.298.082 9.354c-.114 2.118-.114 8.466 0 10.584.092 2.055.539 3.875 1.971 5.375s3.159 1.97 5.114 2.072c2.014.12 8.053.12 10.068 0 1.955-.097 3.687-.566 5.114-2.072 1.426-1.5 1.873-3.32 1.97-5.375.115-2.118.115-8.46 0-10.579zm-2.603 12.852c-.425 1.122-1.247 1.986-2.32 2.438-1.606.67-5.418.515-7.193.515-1.776 0-5.593.15-7.194-.515-1.067-.446-1.89-1.31-2.32-2.438-.637-1.69-.49-5.696-.49-7.562 0-1.866-.141-5.88.49-7.562.425-1.122 1.247-1.987 2.32-2.439 1.607-.67 5.418-.515 7.194-.515 1.775 0 5.592-.149 7.193.515 1.068.447 1.89 1.311 2.32 2.439.637 1.688.49 5.696.49 7.562 0 1.866.147 5.879-.49 7.562z" fill="#fff"/></g><defs><clipPath id="clip0"><path fill="#fff" d="M0 0h24.396v29.309H0z"/></clipPath></defs></svg>