<svg width="68" height="68" fill="none" xmlns="http://www.w3.org/2000/svg"><path d="M0 0h68v68H0V0z" fill="#F7DF1E"/><path d="M17.88 56.826l5.204-3.15c1.003 1.78 1.917 3.286 4.107 3.286 2.1 0 3.424-.82 3.424-4.016V31.22h6.39v21.818c0 6.618-3.88 9.63-9.54 9.63-5.112 0-8.08-2.647-9.585-5.842m22.596-.685l5.203-3.013c1.37 2.237 3.15 3.88 6.3 3.88 2.647 0 4.336-1.324 4.336-3.15 0-2.19-1.735-2.966-4.656-4.244l-1.597-.685c-4.61-1.963-7.67-4.427-7.67-9.631 0-4.793 3.652-8.445 9.358-8.445 4.063 0 6.984 1.415 9.084 5.113l-4.976 3.195c-1.095-1.963-2.282-2.739-4.107-2.739-1.872 0-3.059 1.187-3.059 2.739 0 1.917 1.187 2.693 3.925 3.88l1.598.685c5.432 2.328 8.49 4.701 8.49 10.041 0 5.752-4.519 8.901-10.59 8.901-5.933 0-9.768-2.83-11.639-6.527" fill="#000"/></svg>