<svg width="25" height="28" fill="none" xmlns="http://www.w3.org/2000/svg"><g clip-path="url(#clip0)"><path d="M5.523 24.5H.408V8.143h5.115V24.5zM2.963 5.912A2.976 2.976 0 010 2.942c0-.78.312-1.528.868-2.08a2.973 2.973 0 014.19 0c.555.552.867 1.3.867 2.08a2.977 2.977 0 01-2.963 2.97zM24.667 24.5h-5.104v-7.962c0-1.898-.04-4.331-2.66-4.331-2.66 0-3.067 2.061-3.067 4.194v8.1h-5.11V8.142h4.906v2.232h.072c.683-1.286 2.35-2.642 4.84-2.642 5.177 0 6.128 3.385 6.128 7.782V24.5h-.005z" fill="#fff"/></g><defs><clipPath id="clip0"><path fill="#fff" d="M0 0h24.673v28H0z"/></clipPath></defs></svg>