<svg width="68" height="68" fill="none" xmlns="http://www.w3.org/2000/svg"><path d="M68 34c0 2.057-.183 4.07-.533 6.026C64.624 55.929 50.721 68 34 68c-12.598 0-23.596-6.851-29.469-17.032a33.734 33.734 0 01-3.332-7.99A33.979 33.979 0 010 34C0 15.222 15.222 0 34 0c15.498 0 28.574 10.37 32.67 24.55.865 3 1.33 6.17 1.33 9.45z" fill="#8F9ED1"/><path d="M17.288 23.672H4.767L1.199 42.98a33.736 33.736 0 003.332 7.99h1.161l1.382-7.478h6.881c8.378 0 10.63-7.522 11.17-11.216a7.664 7.664 0 00-7.837-8.603zm1.817 9.226c-.307 2.094-1.854 6.359-6.603 6.359H7.857L9.933 28.02h4.728c4.61 0 4.75 2.784 4.444 4.878zm47.564-8.348c-1.065-.55-2.333-.878-3.799-.878H50.35l-5.045 27.296h5.97l1.382-7.477h6.88c3.727 0 6.242-1.488 7.93-3.465.35-1.956.534-3.97.534-6.026 0-3.28-.465-6.45-1.331-9.45zm-1.982 8.348c-.307 2.094-1.854 6.359-6.604 6.359h-4.644l2.076-11.237h4.728c4.61 0 4.75 2.784 4.444 4.878zM41.07 23.763h-7.25l1.361-7.365h-5.945L24.19 43.693h5.945l2.901-15.696h3.8c2.522 0 4.234.54 3.874 2.882-.36 2.342-2.432 12.702-2.432 12.702h6.035s2.342-11.53 2.703-14.774c.36-3.243-2.613-5.044-5.946-5.044z" fill="#F2F2F2"/></svg>