<svg width="68" height="68" fill="none" xmlns="http://www.w3.org/2000/svg"><path d="M64.19 68H3.81A3.81 3.81 0 010 64.19V14.069h68v50.12A3.81 3.81 0 0164.19 68z" fill="#ECF0F1"/><path d="M68 14.069H0V3.81A3.81 3.81 0 013.81 0h60.38A3.81 3.81 0 0168 3.81v10.26z" fill="#687492"/><path d="M9.38 4.69H4.69v4.69h4.69V4.69z" fill="#E64C3C"/><path d="M18.759 4.69h-4.69v4.69h4.69V4.69z" fill="#F0C419"/><path d="M28.138 4.69h-4.69v4.69h4.69V4.69z" fill="#24AE5F"/><path d="M53.931 56.276H37.517A3.522 3.522 0 0134 52.759a3.522 3.522 0 013.517-3.518h16.414a3.522 3.522 0 013.517 3.518 3.522 3.522 0 01-3.517 3.517z" fill="#E64C3C"/><path d="M57.448 35.172H35.172a1.172 1.172 0 110-2.344h22.276a1.172 1.172 0 110 2.344zm-5.862-4.689H35.173a1.172 1.172 0 110-2.345h16.413a1.172 1.172 0 110 2.345zm9.379 9.379H35.172a1.172 1.172 0 110-2.345h25.794a1.172 1.172 0 110 2.345zm0 4.69H35.172a1.172 1.172 0 110-2.345h25.794a1.172 1.172 0 110 2.345z" fill="#BDC3C7"/><path d="M25.39 59.793H9.783a2.747 2.747 0 01-2.749-2.748V25.024a2.748 2.748 0 012.749-2.748H25.39a2.747 2.747 0 012.748 2.748v32.021a2.747 2.747 0 01-2.748 2.748z" fill="#8697CB"/><path d="M19.93 56.276h-4.689a1.172 1.172 0 01-1.172-1.173v-4.69c0-.648.525-1.172 1.172-1.172h4.69c.647 0 1.172.524 1.172 1.173v4.69c0 .648-.525 1.172-1.172 1.172zm-1.172-28.138h-2.345a1.172 1.172 0 110-2.345h2.345a1.172 1.172 0 110 2.345zm-5.862 3.517H7.034V34h5.862v-2.345zM28.138 43.38h-5.862v2.344h5.862V43.38z" fill="#687492"/></svg>