<svg width="32" height="28" fill="none" xmlns="http://www.w3.org/2000/svg"><path d="M29.769 6.437c.202-.684 0-1.187-.972-1.187h-3.218c-.819 0-1.196.432-1.398.913 0 0-1.639 3.998-3.955 6.59-.748.75-1.092.99-1.502.99-.202 0-.513-.24-.513-.924V6.437c0-.82-.23-1.187-.907-1.187h-5.058c-.513 0-.82.383-.82.738 0 .777 1.159.957 1.28 3.145v4.747c0 1.039-.187 1.23-.596 1.23-1.093 0-3.747-4.014-5.32-8.608-.317-.891-.629-1.252-1.453-1.252H2.119c-.917 0-1.103.432-1.103.913 0 .853 1.093 5.092 5.085 10.692 2.66 3.822 6.407 5.895 9.816 5.895 2.048 0 2.3-.46 2.3-1.252 0-3.654-.186-3.998.84-3.998.476 0 1.295.24 3.207 2.084 2.185 2.187 2.545 3.166 3.769 3.166h3.217c.918 0 1.382-.46 1.114-1.367-.612-1.909-4.747-5.835-4.932-6.098-.475-.612-.339-.886 0-1.433.005-.005 3.933-5.54 4.337-7.415z" fill="#fff"/></svg>