<svg width="68" height="68" fill="none" xmlns="http://www.w3.org/2000/svg"><path d="M20.398 20.986h-3.755l10.238 28.94 5.731-16.379-4.444-12.561h-3.962v-2.758h17.546v2.758h-4.109l10.238 28.94 3.68-10.517c4.827-13.473-3.957-17.67-3.957-20.677a5.444 5.444 0 015.92-5.422A28.349 28.349 0 0034 5.552c-9.877 0-18.578 5.034-23.678 12.677h10.076v2.757zM5.551 34c0 10.892 6.122 20.352 15.111 25.133L7.824 22.842A28.355 28.355 0 005.551 34zm53.207-14.018c.407 2.396.284 5.088-.34 7.792h.113l-.43 1.23a26.528 26.528 0 01-.94 2.687l-9.79 27.423C56.343 54.328 62.449 44.878 62.449 34c0-5.097-1.342-9.88-3.69-14.018z" fill="#00769D"/><path d="M25.226 61.067A28.42 28.42 0 0034 62.448c2.92 0 5.738-.44 8.39-1.258l-8.32-23.523-8.843 23.4z" fill="#00769D"/><path d="M58.041 9.958C51.62 3.537 43.081 0 34 0 24.918 0 16.38 3.537 9.958 9.958 3.537 16.38 0 24.918 0 34s3.537 17.62 9.958 24.041C16.38 64.463 24.918 68 34 68s17.62-3.537 24.042-9.959C64.463 51.62 68 43.081 68 34c0-9.082-3.537-17.62-9.959-24.042zM34 65.601C16.575 65.601 2.398 51.425 2.398 34 2.398 16.575 16.575 2.398 34 2.398S65.6 16.575 65.6 34 51.425 65.601 34 65.601z" fill="#00769D"/></svg>