<svg width="68" height="68" viewBox="0 0 68 68" fill="none" xmlns="http://www.w3.org/2000/svg">
<g clip-path="url(#clip0)">
<path d="M4.28161 2.25107L8.69494 58.7118C8.7612 59.5596 9.33509 60.2826 10.1458 60.5396L33.3689 67.9024C33.7795 68.0326 34.2205 68.0326 34.6311 67.9024L57.8542 60.5396C58.6649 60.2826 59.2388 59.5596 59.3051 58.7118L63.7184 2.25107C63.8133 1.0372 62.854 0 61.6365 0H6.36368C5.1462 0 4.18685 1.0372 4.28161 2.25107ZM52.4007 19.7689H23.6381L24.5062 27.7735H51.7751L49.9913 50.5932L34.0001 55.6631L18.0089 50.5932L17.0769 38.6712H25.4704V44.5191L34.2244 46.8686L42.9261 44.5191L43.6011 35.1992H16.8055L15.0265 12.4393H52.9735L52.4007 19.7689Z" fill="#FC490B"/>
</g>
<defs>
<clipPath id="clip0">
<rect width="68" height="68" fill="white"/>
</clipPath>
</defs>
</svg>
