<svg width="68" height="68" viewBox="0 0 68 68" fill="none" xmlns="http://www.w3.org/2000/svg">
<path d="M0 0H68V68H0V0Z" fill="#F7DF1E"/>
<path d="M17.8797 56.8258L23.0836 53.6765C24.0875 55.4565 25.0008 56.9625 27.1913 56.9625C29.2911 56.9625 30.615 56.1411 30.615 52.9462V31.2186H37.0052V53.0366C37.0052 59.6552 33.1256 62.6679 27.4653 62.6679C22.3533 62.6679 19.3859 60.0203 17.8796 56.8252" fill="black"/>
<path d="M40.4761 56.141L45.6793 53.1284C47.049 55.3653 48.8292 57.0084 51.9785 57.0084C54.6263 57.0084 56.3148 55.6845 56.3148 53.8587C56.3148 51.6677 54.5804 50.8916 51.6589 49.614L50.0618 48.9288C45.4513 46.9664 42.3929 44.5016 42.3929 39.2978C42.3929 34.505 46.0445 30.8532 51.7505 30.8532C55.813 30.8532 58.7343 32.2684 60.8338 35.9657L55.8583 39.1608C54.7628 37.1981 53.5763 36.4223 51.7506 36.4223C49.8791 36.4223 48.6922 37.6091 48.6922 39.1608C48.6922 41.0779 49.8791 41.8541 52.6175 43.041L54.215 43.7256C59.6469 46.0537 62.7053 48.427 62.7053 53.7674C62.7053 59.5191 58.1864 62.6684 52.1156 62.6684C46.1817 62.6684 42.3474 59.8385 40.4762 56.141" fill="black"/>
</svg>
