<svg width="68" height="68" viewBox="0 0 68 68" fill="none" xmlns="http://www.w3.org/2000/svg">
<path d="M68 34C68 36.0566 67.8168 38.0703 67.4672 40.0256C64.6236 55.9293 50.7211 68 34 68C21.4019 68 10.404 61.1486 4.53103 50.9681C3.09745 48.4855 1.97067 45.8057 1.19903 42.9788C0.416367 40.1187 0 37.1071 0 34C0 15.2223 15.2223 0 34 0C49.4984 0 62.5738 10.3693 66.6691 24.5493C67.5352 27.5497 68 30.7207 68 34Z" fill="#8F9ED1"/>
<path d="M17.2883 23.6723H4.76661L1.19873 42.9788C1.97037 45.8057 3.09715 48.4854 4.53073 50.9681H5.69231L7.07449 43.4909H13.955C22.3328 43.4909 24.5852 35.9693 25.125 32.275C25.6662 28.5821 22.9643 23.6723 17.2883 23.6723ZM19.1049 32.898C18.7982 34.9922 17.2508 39.2567 12.502 39.2567H7.85715L9.93328 28.0201H14.6614C19.2701 28.0201 19.4116 30.804 19.1049 32.898Z" fill="#F2F2F2"/>
<path d="M66.6687 24.5493C65.6043 23.9997 64.3358 23.6722 62.8704 23.6722H50.3487L45.3042 50.9681H51.2743L52.6564 43.4909H59.5369C63.2631 43.4909 65.7776 42.0033 67.4665 40.0257C67.8164 38.0703 67.9996 36.0566 67.9996 34C67.9996 30.7207 67.5348 27.5497 66.6687 24.5493ZM64.687 32.898C64.3803 34.9922 62.8329 39.2567 58.0826 39.2567H53.4392L55.5154 28.0201H60.2435C64.8522 28.0201 64.9937 30.804 64.687 32.898Z" fill="#F2F2F2"/>
<path d="M41.0701 23.7627C38.6403 23.7627 35.3985 23.7627 33.819 23.7627L35.18 16.3981H29.2346L24.1899 43.6932H30.1354L33.0364 27.9966C34.1082 27.9966 35.532 27.9966 36.8362 27.9966C39.3584 27.9966 41.0701 28.5371 40.7097 30.8793C40.3494 33.2214 38.2775 43.581 38.2775 43.581H44.313C44.313 43.581 46.6552 32.0504 47.0155 28.8073C47.3759 25.5643 44.4032 23.7627 41.0701 23.7627Z" fill="#F2F2F2"/>
</svg>
