<svg width="68" height="68" viewBox="0 0 68 68" fill="none" xmlns="http://www.w3.org/2000/svg">
<path d="M64.1896 68H3.81039C1.70584 68 0 66.2942 0 64.1896V14.069H68V64.1896C68 66.2942 66.2942 68 64.1896 68Z" fill="#ECF0F1"/>
<path d="M68 14.069H0V3.81039C0 1.70584 1.70584 0 3.81039 0H64.1896C66.2942 0 68 1.70584 68 3.81039V14.069Z" fill="#687492"/>
<path d="M9.37907 4.68961H4.68945V9.37922H9.37907V4.68961Z" fill="#E64C3C"/>
<path d="M18.7585 4.68961H14.0688V9.37922H18.7585V4.68961Z" fill="#F0C419"/>
<path d="M28.1381 4.68961H23.4485V9.37922H28.1381V4.68961Z" fill="#24AE5F"/>
<path d="M53.931 56.2759H37.5173C35.5781 56.2759 34 54.6978 34 52.7586C34 50.8194 35.5781 49.2413 37.5173 49.2413H53.931C55.8702 49.2413 57.4483 50.8194 57.4483 52.7586C57.4483 54.6978 55.8702 56.2759 53.931 56.2759Z" fill="#E64C3C"/>
<path d="M57.4483 35.1725H35.1725C34.5253 35.1725 34 34.6484 34 34C34 33.3516 34.5253 32.8275 35.1725 32.8275H57.4483C58.0955 32.8275 58.6208 33.3516 58.6208 34C58.6208 34.6484 58.0955 35.1725 57.4483 35.1725Z" fill="#BDC3C7"/>
<path d="M51.5862 30.4827H35.1725C34.5253 30.4827 34 29.9586 34 29.3103C34 28.6619 34.5253 28.1378 35.1725 28.1378H51.5862C52.2334 28.1378 52.7587 28.6619 52.7587 29.3103C52.7587 29.9586 52.2334 30.4827 51.5862 30.4827Z" fill="#BDC3C7"/>
<path d="M60.9655 39.8621H35.1725C34.5253 39.8621 34 39.338 34 38.6896C34 38.0412 34.5253 37.5172 35.1725 37.5172H60.9656C61.6128 37.5172 62.1381 38.0412 62.1381 38.6896C62.1379 39.338 61.6126 39.8621 60.9655 39.8621Z" fill="#BDC3C7"/>
<path d="M60.9655 44.5517H35.1725C34.5253 44.5517 34 44.0276 34 43.3792C34 42.7308 34.5253 42.2068 35.1725 42.2068H60.9656C61.6128 42.2068 62.1381 42.7308 62.1381 43.3792C62.1379 44.0276 61.6126 44.5517 60.9655 44.5517Z" fill="#BDC3C7"/>
<path d="M25.3898 59.7931H9.78258C8.26427 59.7931 7.03442 58.5633 7.03442 57.045V25.024C7.03442 23.5057 8.26427 22.2758 9.78258 22.2758H25.3898C26.9081 22.2758 28.1379 23.5057 28.1379 25.024V57.045C28.1379 58.5633 26.9081 59.7931 25.3898 59.7931Z" fill="#8697CB"/>
<path d="M19.9309 56.2758H15.2413C14.5941 56.2758 14.0688 55.7517 14.0688 55.1034V50.4137C14.0688 49.7654 14.5941 49.2413 15.2413 49.2413H19.9309C20.5781 49.2413 21.1034 49.7654 21.1034 50.4137V55.1034C21.1034 55.7517 20.5781 56.2758 19.9309 56.2758Z" fill="#687492"/>
<path d="M18.7582 28.1379H16.4134C15.7662 28.1379 15.241 27.6138 15.241 26.9654C15.241 26.317 15.7662 25.793 16.4134 25.793H18.7582C19.4054 25.793 19.9307 26.317 19.9307 26.9654C19.9307 27.6138 19.4054 28.1379 18.7582 28.1379Z" fill="#687492"/>
<path d="M12.8965 31.6552H7.03442V34H12.8965V31.6552Z" fill="#687492"/>
<path d="M28.1377 43.3793H22.2756V45.7241H28.1377V43.3793Z" fill="#687492"/>
</svg>
