<svg width="68" height="68" viewBox="0 0 68 68" fill="none" xmlns="http://www.w3.org/2000/svg">
<path d="M20.3983 20.986H16.6431L26.8807 49.9254L32.6121 33.5472L28.1685 20.986H24.2065V18.2285H41.7517V20.986H37.6431L47.8806 49.9254L51.5605 39.409C56.388 25.9355 47.604 21.7385 47.604 18.7316C47.604 15.7246 50.0416 13.2871 53.0484 13.2871C53.2111 13.2871 53.369 13.2959 53.5238 13.3104C48.4291 8.50088 41.5592 5.55151 34 5.55151C24.1226 5.55151 15.4221 10.5863 10.3218 18.2285H20.398V20.986H20.3983Z" fill="#00769D"/>
<path d="M5.55127 34C5.55127 44.8916 11.673 54.352 20.6624 59.1325L7.82409 22.8416C6.36164 26.2677 5.55127 30.0392 5.55127 34Z" fill="#00769D"/>
<path d="M58.7585 19.9815C59.1654 22.3775 59.0422 25.0705 58.4178 27.7739H58.5309L58.1008 29.0031C57.8459 29.8906 57.5249 30.7985 57.1604 31.6906L47.3716 59.1141C56.3421 54.3278 62.4482 44.8776 62.4482 33.9999C62.4482 28.9027 61.1063 24.1193 58.7585 19.9815Z" fill="#00769D"/>
<path d="M25.2261 61.0673C27.9898 61.9626 30.9378 62.4482 33.9999 62.4482C36.9206 62.4482 39.7381 62.0074 42.3905 61.1897L34.069 37.6668L25.2261 61.0673Z" fill="#00769D"/>
<path d="M58.0415 9.95832C51.6198 3.5366 43.0816 0 33.9998 0C24.9181 0 16.38 3.5366 9.95832 9.95832C3.5366 16.38 0 24.9181 0 34C0 43.0817 3.5366 51.6198 9.95832 58.0415C16.38 64.4632 24.9183 67.9998 34 67.9998C43.0817 67.9998 51.6198 64.4632 58.0417 58.0415C64.4634 51.6198 68 43.0816 68 34C67.9998 24.9181 64.4632 16.38 58.0415 9.95832ZM33.9998 65.6014C16.5748 65.6014 2.39844 51.4251 2.39844 34C2.39844 16.5749 16.5748 2.39844 33.9998 2.39844C51.4249 2.39844 65.6012 16.5749 65.6012 34C65.6012 51.4251 51.4251 65.6014 33.9998 65.6014Z" fill="#00769D"/>
</svg>
