<svg width="32" height="28" viewBox="0 0 32 28" fill="none" xmlns="http://www.w3.org/2000/svg">
<g id="youtube-brands 1">
<path id="Vector" d="M30.1585 6.78579C29.8138 5.49243 28.7984 4.47382 27.5092 4.12814C25.1724 3.5 15.802 3.5 15.802 3.5C15.802 3.5 6.43162 3.5 4.09474 4.12814C2.8055 4.47387 1.79012 5.49243 1.44549 6.78579C0.819336 9.13008 0.819336 14.0212 0.819336 14.0212C0.819336 14.0212 0.819336 18.9124 1.44549 21.2566C1.79012 22.55 2.8055 23.5262 4.09474 23.8719C6.43162 24.5 15.802 24.5 15.802 24.5C15.802 24.5 25.1723 24.5 27.5092 23.8719C28.7984 23.5262 29.8138 22.55 30.1585 21.2566C30.7846 18.9124 30.7846 14.0212 30.7846 14.0212C30.7846 14.0212 30.7846 9.13008 30.1585 6.78579ZM12.7373 18.462V9.58043L20.5691 14.0213L12.7373 18.462Z" fill="white"/>
</g>
</svg>
